<mxfile host="Electron" modified="2024-03-15T07:10:13.597Z" agent="Mozilla/5.0 (Windows NT 10.0; Win64; x64) AppleWebKit/537.36 (KHTML, like Gecko) draw.io/22.0.2 Chrome/114.0.5735.289 Electron/25.8.4 Safari/537.36" etag="jXHJiGjqomIqZ88RoxTE" version="22.0.2" type="device">
  <diagram name="Page-1" id="AhKNPWFubmrbZYYIvsSB">
    <mxGraphModel dx="1531" dy="593" grid="1" gridSize="10" guides="1" tooltips="1" connect="1" arrows="1" fold="1" page="1" pageScale="1" pageWidth="850" pageHeight="1100" math="0" shadow="0">
      <root>
        <mxCell id="0" />
        <mxCell id="1" parent="0" />
        <mxCell id="cJ_yDkRFG2cfCOG-L-yD-7" style="rounded=0;orthogonalLoop=1;jettySize=auto;html=1;" edge="1" parent="1" source="cJ_yDkRFG2cfCOG-L-yD-2" target="cJ_yDkRFG2cfCOG-L-yD-5">
          <mxGeometry relative="1" as="geometry" />
        </mxCell>
        <mxCell id="cJ_yDkRFG2cfCOG-L-yD-2" value="0&lt;br&gt;Hệ thống quản lý dịch vụ đặt tour du lịch" style="shape=ellipse;html=1;dashed=0;whiteSpace=wrap;aspect=fixed;perimeter=ellipsePerimeter;fillColor=#ffe6cc;strokeColor=#d79b00;" vertex="1" parent="1">
          <mxGeometry x="280" y="280" width="100" height="100" as="geometry" />
        </mxCell>
        <mxCell id="cJ_yDkRFG2cfCOG-L-yD-4" value="" style="html=1;dashed=0;whiteSpace=wrap;shape=mxgraph.dfd.dataStoreID;align=left;spacingLeft=3;points=[[0,0],[0.5,0],[1,0],[0,0.5],[1,0.5],[0,1],[0.5,1],[1,1]];fillColor=#f5f5f5;fontColor=#333333;strokeColor=#666666;" vertex="1" parent="1">
          <mxGeometry x="150" y="470" width="100" height="30" as="geometry" />
        </mxCell>
        <mxCell id="cJ_yDkRFG2cfCOG-L-yD-5" value="" style="html=1;dashed=0;whiteSpace=wrap;fillColor=#dae8fc;strokeColor=#6c8ebf;" vertex="1" parent="1">
          <mxGeometry x="600" y="305" width="100" height="50" as="geometry" />
        </mxCell>
        <mxCell id="cJ_yDkRFG2cfCOG-L-yD-9" style="rounded=0;orthogonalLoop=1;jettySize=auto;html=1;entryX=0;entryY=0.5;entryDx=0;entryDy=0;" edge="1" parent="1" source="cJ_yDkRFG2cfCOG-L-yD-8" target="cJ_yDkRFG2cfCOG-L-yD-2">
          <mxGeometry relative="1" as="geometry" />
        </mxCell>
        <mxCell id="cJ_yDkRFG2cfCOG-L-yD-8" value="" style="html=1;dashed=0;whiteSpace=wrap;fillColor=#dae8fc;strokeColor=#6c8ebf;" vertex="1" parent="1">
          <mxGeometry x="-30" y="305" width="100" height="50" as="geometry" />
        </mxCell>
      </root>
    </mxGraphModel>
  </diagram>
</mxfile>
